<svg width="26" height="26" viewBox="0 0 26 26" fill="none" xmlns="http://www.w3.org/2000/svg">
<path d="M11.0911 20.2211C6.04556 20.2211 1.96106 16.127 1.96106 11.0911C1.96106 6.04553 6.04556 1.96105 11.0911 1.96105C16.1367 1.96105 20.2212 6.04553 20.2212 11.0911C20.2212 16.127 16.1367 20.2211 11.0911 20.2211ZM24.863 24.1901L18.5489 17.8762C20.1827 16.079 21.1822 13.7051 21.1822 11.0911C21.1822 5.51695 16.6653 1 11.0911 1C5.51698 1 1 5.51695 1 11.0911C1 16.6652 5.51698 21.1821 11.0911 21.1821C13.7052 21.1821 16.0791 20.173 17.8762 18.5489L24.1904 24.8631C24.373 25.0457 24.6804 25.0457 24.863 24.8631C25.0457 24.6708 25.0457 24.3727 24.863 24.1901Z" fill="#2A2A2A" stroke="#2A2A2A" stroke-width="0.5"/>
</svg>
