<svg width="12" height="12" viewBox="0 0 12 12" fill="none" xmlns="http://www.w3.org/2000/svg">
<path d="M8.63939 7.64844C8.63939 7.58315 8.58136 7.53237 8.52332 7.53237H7.66004C7.602 7.53237 7.55122 7.58315 7.55122 7.64844V8.15625C7.55122 8.61328 6.56461 8.80915 6.04229 8.80915C4.6712 8.80915 3.68459 7.74275 3.68459 6.2846C3.68459 4.87723 4.62767 3.89788 5.98426 3.89788C6.57912 3.89788 7.45691 4.10826 7.45691 4.56529V5.0731C7.45691 5.13839 7.5077 5.18917 7.57299 5.18917H8.42901C8.4943 5.18917 8.54508 5.13839 8.54508 5.0731V4.28237C8.54508 3.12891 6.66618 2.875 5.94799 2.875C3.98203 2.875 2.50211 4.35491 2.50211 6.32087C2.50211 8.3231 3.99653 9.83929 5.98426 9.83929C7.00714 9.83929 8.63939 9.46205 8.63939 8.43917V7.64844ZM5.86819 1.71429C8.42901 1.71429 10.511 3.79632 10.511 6.35714C10.511 8.91797 8.42901 11 5.86819 11C3.30736 11 1.22533 8.91797 1.22533 6.35714C1.22533 3.79632 3.30736 1.71429 5.86819 1.71429ZM11.4396 6.35714C11.4396 3.28125 8.94408 0.785714 5.86819 0.785714C2.79229 0.785714 0.296758 3.28125 0.296758 6.35714C0.296758 9.43304 2.79229 11.9286 5.86819 11.9286C8.94408 11.9286 11.4396 9.43304 11.4396 6.35714Z" fill="white"/>
</svg>
